solid OpenSCAD_Model
  facet normal -0.953715 0.30071 0
    outer loop
      vertex -40.2087 -3 0
      vertex -40.0993 -2.65289 10.75
      vertex -40.0993 -2.65289 0
    endloop
  endfacet
  facet normal -0.953715 0.30071 0
    outer loop
      vertex -40.0993 -2.65289 10.75
      vertex -40.2087 -3 0
      vertex -40.2087 -3 10.75
    endloop
  endfacet
  facet normal -0.976296 0.216438 0
    outer loop
      vertex -40.0993 -2.65289 0
      vertex -39.9057 -1.77989 10.75
      vertex -39.9057 -1.77989 0
    endloop
  endfacet
  facet normal -0.976296 0.216438 0
    outer loop
      vertex -39.9057 -1.77989 10.75
      vertex -40.0993 -2.65289 0
      vertex -40.0993 -2.65289 10.75
    endloop
  endfacet
  facet normal -0.976296 -0.216438 0
    outer loop
      vertex -39.9057 1.77989 0
      vertex -40.0993 2.65289 10.75
      vertex -40.0993 2.65289 0
    endloop
  endfacet
  facet normal -0.976296 -0.216438 0
    outer loop
      vertex -40.0993 2.65289 10.75
      vertex -39.9057 1.77989 0
      vertex -39.9057 1.77989 10.75
    endloop
  endfacet
  facet normal -0.991445 -0.130522 0
    outer loop
      vertex -39.836 1.25 0
      vertex -39.9057 1.77989 10.75
      vertex -39.9057 1.77989 0
    endloop
  endfacet
  facet normal -0.991445 -0.130522 0
    outer loop
      vertex -39.9057 1.77989 10.75
      vertex -39.836 1.25 0
      vertex -39.836 1.25 10.75
    endloop
  endfacet
  facet normal -0.953715 -0.30071 0
    outer loop
      vertex -40.0993 2.65289 0
      vertex -40.2087 3 10.75
      vertex -40.2087 3 0
    endloop
  endfacet
  facet normal -0.953715 -0.30071 0
    outer loop
      vertex -40.2087 3 10.75
      vertex -40.0993 2.65289 0
      vertex -40.0993 2.65289 10.75
    endloop
  endfacet
  facet normal -0.991445 0.130522 0
    outer loop
      vertex -39.9057 -1.77989 0
      vertex -39.836 -1.25 10.75
      vertex -39.836 -1.25 0
    endloop
  endfacet
  facet normal -0.991445 0.130522 0
    outer loop
      vertex -39.836 -1.25 10.75
      vertex -39.9057 -1.77989 0
      vertex -39.9057 -1.77989 10.75
    endloop
  endfacet
  facet normal -1 0 0
    outer loop
      vertex -44.75 -1.25 0
      vertex -44.75 1.25 10.75
      vertex -44.75 1.25 0
    endloop
  endfacet
  facet normal -1 -0 0
    outer loop
      vertex -44.75 1.25 10.75
      vertex -44.75 -1.25 0
      vertex -44.75 -1.25 10.75
    endloop
  endfacet
  facet normal 0 -1 0
    outer loop
      vertex -44.75 -1.25 0
      vertex -39.836 -1.25 10.75
      vertex -44.75 -1.25 10.75
    endloop
  endfacet
  facet normal 0 -1 -0
    outer loop
      vertex -39.836 -1.25 10.75
      vertex -44.75 -1.25 0
      vertex -39.836 -1.25 0
    endloop
  endfacet
  facet normal 0 1 -0
    outer loop
      vertex -39.836 1.25 0
      vertex -44.75 1.25 10.75
      vertex -39.836 1.25 10.75
    endloop
  endfacet
  facet normal 0 1 0
    outer loop
      vertex -44.75 1.25 10.75
      vertex -39.836 1.25 0
      vertex -44.75 1.25 0
    endloop
  endfacet
  facet normal 0.953715 0.30071 0
    outer loop
      vertex 40.2087 -3 10.75
      vertex 40.0993 -2.65289 0
      vertex 40.0993 -2.65289 10.75
    endloop
  endfacet
  facet normal 0.953715 0.30071 0
    outer loop
      vertex 40.0993 -2.65289 0
      vertex 40.2087 -3 10.75
      vertex 40.2087 -3 0
    endloop
  endfacet
  facet normal 0.953715 -0.30071 0
    outer loop
      vertex 40.0993 2.65289 10.75
      vertex 40.2087 3 0
      vertex 40.2087 3 10.75
    endloop
  endfacet
  facet normal 0.953715 -0.30071 0
    outer loop
      vertex 40.2087 3 0
      vertex 40.0993 2.65289 10.75
      vertex 40.0993 2.65289 0
    endloop
  endfacet
  facet normal 0.976296 -0.216438 0
    outer loop
      vertex 39.9057 1.77989 10.75
      vertex 40.0993 2.65289 0
      vertex 40.0993 2.65289 10.75
    endloop
  endfacet
  facet normal 0.976296 -0.216438 0
    outer loop
      vertex 40.0993 2.65289 0
      vertex 39.9057 1.77989 10.75
      vertex 39.9057 1.77989 0
    endloop
  endfacet
  facet normal 0.991445 -0.130522 0
    outer loop
      vertex 39.836 1.25 10.75
      vertex 39.9057 1.77989 0
      vertex 39.9057 1.77989 10.75
    endloop
  endfacet
  facet normal 0.991445 -0.130522 0
    outer loop
      vertex 39.9057 1.77989 0
      vertex 39.836 1.25 10.75
      vertex 39.836 1.25 0
    endloop
  endfacet
  facet normal 0.976296 0.216438 0
    outer loop
      vertex 40.0993 -2.65289 10.75
      vertex 39.9057 -1.77989 0
      vertex 39.9057 -1.77989 10.75
    endloop
  endfacet
  facet normal 0.976296 0.216438 0
    outer loop
      vertex 39.9057 -1.77989 0
      vertex 40.0993 -2.65289 10.75
      vertex 40.0993 -2.65289 0
    endloop
  endfacet
  facet normal 0.991445 0.130522 0
    outer loop
      vertex 39.9057 -1.77989 10.75
      vertex 39.836 -1.25 0
      vertex 39.836 -1.25 10.75
    endloop
  endfacet
  facet normal 0.991445 0.130522 0
    outer loop
      vertex 39.836 -1.25 0
      vertex 39.9057 -1.77989 10.75
      vertex 39.9057 -1.77989 0
    endloop
  endfacet
  facet normal 1 -0 0
    outer loop
      vertex 44.75 -1.25 10.75
      vertex 44.75 1.25 0
      vertex 44.75 1.25 10.75
    endloop
  endfacet
  facet normal 1 0 0
    outer loop
      vertex 44.75 1.25 0
      vertex 44.75 -1.25 10.75
      vertex 44.75 -1.25 0
    endloop
  endfacet
  facet normal 0 1 -0
    outer loop
      vertex 44.75 1.25 0
      vertex 39.836 1.25 10.75
      vertex 44.75 1.25 10.75
    endloop
  endfacet
  facet normal 0 1 0
    outer loop
      vertex 39.836 1.25 10.75
      vertex 44.75 1.25 0
      vertex 39.836 1.25 0
    endloop
  endfacet
  facet normal 0 -1 0
    outer loop
      vertex 39.836 -1.25 0
      vertex 44.75 -1.25 10.75
      vertex 39.836 -1.25 10.75
    endloop
  endfacet
  facet normal 0 -1 -0
    outer loop
      vertex 44.75 -1.25 10.75
      vertex 39.836 -1.25 0
      vertex 44.75 -1.25 0
    endloop
  endfacet
  facet normal -0 0 1
    outer loop
      vertex -44.75 1.25 10.75
      vertex -39.836 -1.25 10.75
      vertex -39.836 1.25 10.75
    endloop
  endfacet
  facet normal 0 0 1
    outer loop
      vertex -39.836 -1.25 10.75
      vertex -44.75 1.25 10.75
      vertex -44.75 -1.25 10.75
    endloop
  endfacet
  facet normal 0 0 1
    outer loop
      vertex 39.836 1.25 10.75
      vertex -39.836 1.25 10.75
      vertex 39.836 -1.25 10.75
    endloop
  endfacet
  facet normal 0 0 1
    outer loop
      vertex 39.9057 1.77989 10.75
      vertex -39.836 1.25 10.75
      vertex 39.836 1.25 10.75
    endloop
  endfacet
  facet normal 0 0 1
    outer loop
      vertex -39.9057 1.77989 10.75
      vertex 39.9057 1.77989 10.75
      vertex 40.0993 2.65289 10.75
    endloop
  endfacet
  facet normal 0 0 1
    outer loop
      vertex -40.0993 2.65289 10.75
      vertex 40.0993 2.65289 10.75
      vertex 40.2087 3 10.75
    endloop
  endfacet
  facet normal 0 0 1
    outer loop
      vertex 39.9057 1.77989 10.75
      vertex -39.9057 1.77989 10.75
      vertex -39.836 1.25 10.75
    endloop
  endfacet
  facet normal 0 0 1
    outer loop
      vertex 40.0993 2.65289 10.75
      vertex -40.0993 2.65289 10.75
      vertex -39.9057 1.77989 10.75
    endloop
  endfacet
  facet normal 0 -0 1
    outer loop
      vertex -40.0993 2.65289 10.75
      vertex 40.2087 3 10.75
      vertex -40.2087 3 10.75
    endloop
  endfacet
  facet normal -0 0 1
    outer loop
      vertex 39.836 1.25 10.75
      vertex 44.75 -1.25 10.75
      vertex 44.75 1.25 10.75
    endloop
  endfacet
  facet normal 0 0 1
    outer loop
      vertex 44.75 -1.25 10.75
      vertex 39.836 1.25 10.75
      vertex 39.836 -1.25 10.75
    endloop
  endfacet
  facet normal 0 0 1
    outer loop
      vertex -39.836 -1.25 10.75
      vertex 39.836 -1.25 10.75
      vertex -39.836 1.25 10.75
    endloop
  endfacet
  facet normal 0 0 1
    outer loop
      vertex 39.836 -1.25 10.75
      vertex -39.836 -1.25 10.75
      vertex 39.9057 -1.77989 10.75
    endloop
  endfacet
  facet normal 0 0 1
    outer loop
      vertex -39.9057 -1.77989 10.75
      vertex 39.9057 -1.77989 10.75
      vertex -39.836 -1.25 10.75
    endloop
  endfacet
  facet normal 0 0 1
    outer loop
      vertex 39.9057 -1.77989 10.75
      vertex -39.9057 -1.77989 10.75
      vertex 40.0993 -2.65289 10.75
    endloop
  endfacet
  facet normal 0 0 1
    outer loop
      vertex -40.0993 -2.65289 10.75
      vertex 40.0993 -2.65289 10.75
      vertex -39.9057 -1.77989 10.75
    endloop
  endfacet
  facet normal 0 0 1
    outer loop
      vertex 40.0993 -2.65289 10.75
      vertex -40.0993 -2.65289 10.75
      vertex 40.2087 -3 10.75
    endloop
  endfacet
  facet normal 0 0 1
    outer loop
      vertex 40.2087 -3 10.75
      vertex -40.0993 -2.65289 10.75
      vertex -40.2087 -3 10.75
    endloop
  endfacet
  facet normal 0 0 -1
    outer loop
      vertex -44.75 -1.25 0
      vertex -39.836 1.25 0
      vertex -39.836 -1.25 0
    endloop
  endfacet
  facet normal -0 0 -1
    outer loop
      vertex -39.836 1.25 0
      vertex -44.75 -1.25 0
      vertex -44.75 1.25 0
    endloop
  endfacet
  facet normal -0 0 -1
    outer loop
      vertex 39.836 -1.25 0
      vertex -39.836 -1.25 0
      vertex 39.836 1.25 0
    endloop
  endfacet
  facet normal 0 0 -1
    outer loop
      vertex 39.9057 -1.77989 0
      vertex -39.836 -1.25 0
      vertex 39.836 -1.25 0
    endloop
  endfacet
  facet normal 0 0 -1
    outer loop
      vertex -39.9057 -1.77989 0
      vertex 39.9057 -1.77989 0
      vertex 40.0993 -2.65289 0
    endloop
  endfacet
  facet normal 0 0 -1
    outer loop
      vertex -40.0993 -2.65289 0
      vertex 40.0993 -2.65289 0
      vertex 40.2087 -3 0
    endloop
  endfacet
  facet normal 0 0 -1
    outer loop
      vertex 39.9057 -1.77989 0
      vertex -39.9057 -1.77989 0
      vertex -39.836 -1.25 0
    endloop
  endfacet
  facet normal 0 0 -1
    outer loop
      vertex 40.0993 -2.65289 0
      vertex -40.0993 -2.65289 0
      vertex -39.9057 -1.77989 0
    endloop
  endfacet
  facet normal 0 -0 -1
    outer loop
      vertex -40.0993 -2.65289 0
      vertex 40.2087 -3 0
      vertex -40.2087 -3 0
    endloop
  endfacet
  facet normal 0 0 -1
    outer loop
      vertex 39.836 -1.25 0
      vertex 44.75 1.25 0
      vertex 44.75 -1.25 0
    endloop
  endfacet
  facet normal -0 0 -1
    outer loop
      vertex 44.75 1.25 0
      vertex 39.836 -1.25 0
      vertex 39.836 1.25 0
    endloop
  endfacet
  facet normal 0 0 -1
    outer loop
      vertex -39.836 1.25 0
      vertex 39.836 1.25 0
      vertex -39.836 -1.25 0
    endloop
  endfacet
  facet normal 0 0 -1
    outer loop
      vertex 39.836 1.25 0
      vertex -39.836 1.25 0
      vertex 39.9057 1.77989 0
    endloop
  endfacet
  facet normal 0 0 -1
    outer loop
      vertex -39.9057 1.77989 0
      vertex 39.9057 1.77989 0
      vertex -39.836 1.25 0
    endloop
  endfacet
  facet normal 0 0 -1
    outer loop
      vertex 39.9057 1.77989 0
      vertex -39.9057 1.77989 0
      vertex 40.0993 2.65289 0
    endloop
  endfacet
  facet normal 0 0 -1
    outer loop
      vertex -40.0993 2.65289 0
      vertex 40.0993 2.65289 0
      vertex -39.9057 1.77989 0
    endloop
  endfacet
  facet normal 0 0 -1
    outer loop
      vertex 40.0993 2.65289 0
      vertex -40.0993 2.65289 0
      vertex 40.2087 3 0
    endloop
  endfacet
  facet normal -0 0 -1
    outer loop
      vertex 40.2087 3 0
      vertex -40.0993 2.65289 0
      vertex -40.2087 3 0
    endloop
  endfacet
  facet normal 0 -1 0
    outer loop
      vertex -40.2087 -3 0
      vertex 40.2087 -3 10.75
      vertex -40.2087 -3 10.75
    endloop
  endfacet
  facet normal 0 -1 -0
    outer loop
      vertex 40.2087 -3 10.75
      vertex -40.2087 -3 0
      vertex 40.2087 -3 0
    endloop
  endfacet
  facet normal 0 1 -0
    outer loop
      vertex 40.2087 3 0
      vertex -40.2087 3 10.75
      vertex 40.2087 3 10.75
    endloop
  endfacet
  facet normal 0 1 0
    outer loop
      vertex -40.2087 3 10.75
      vertex 40.2087 3 0
      vertex -40.2087 3 0
    endloop
  endfacet
endsolid OpenSCAD_Model
